<mxfile host="app.diagrams.net" agent="Mozilla/5.0 (Windows NT 10.0; Win64; x64) AppleWebKit/537.36 (KHTML, like Gecko) Chrome/130.0.0.0 Safari/537.36 OPR/115.0.0.0" version="26.0.8">
  <diagram name="PÃ¡gina-1" id="sXp3zYoNtIoHzX3ni3ma">
    <mxGraphModel dx="1390" dy="761" grid="1" gridSize="10" guides="1" tooltips="1" connect="1" arrows="1" fold="1" page="1" pageScale="1" pageWidth="827" pageHeight="1169" math="0" shadow="0">
      <root>
        <mxCell id="0" />
        <mxCell id="1" parent="0" />
        <mxCell id="8UW8FwMt3Wl7wXd7DehI-5" style="edgeStyle=orthogonalEdgeStyle;rounded=0;orthogonalLoop=1;jettySize=auto;html=1;entryX=0.5;entryY=0;entryDx=0;entryDy=0;" edge="1" parent="1" source="8UW8FwMt3Wl7wXd7DehI-1" target="8UW8FwMt3Wl7wXd7DehI-4">
          <mxGeometry relative="1" as="geometry" />
        </mxCell>
        <mxCell id="8UW8FwMt3Wl7wXd7DehI-1" value="INICIO" style="strokeWidth=2;html=1;shape=mxgraph.flowchart.start_1;whiteSpace=wrap;" vertex="1" parent="1">
          <mxGeometry x="364" y="20" width="100" height="60" as="geometry" />
        </mxCell>
        <mxCell id="8UW8FwMt3Wl7wXd7DehI-2" value="FIM" style="strokeWidth=2;html=1;shape=mxgraph.flowchart.start_1;whiteSpace=wrap;" vertex="1" parent="1">
          <mxGeometry x="364" y="620" width="100" height="60" as="geometry" />
        </mxCell>
        <mxCell id="8UW8FwMt3Wl7wXd7DehI-9" style="edgeStyle=orthogonalEdgeStyle;rounded=0;orthogonalLoop=1;jettySize=auto;html=1;entryX=0.5;entryY=0;entryDx=0;entryDy=0;" edge="1" parent="1" source="8UW8FwMt3Wl7wXd7DehI-3" target="8UW8FwMt3Wl7wXd7DehI-7">
          <mxGeometry relative="1" as="geometry" />
        </mxCell>
        <mxCell id="8UW8FwMt3Wl7wXd7DehI-3" value="i = 0; i &amp;lt; x; i++" style="rounded=1;whiteSpace=wrap;html=1;absoluteArcSize=1;arcSize=14;strokeWidth=2;" vertex="1" parent="1">
          <mxGeometry x="354" y="270" width="120" height="50" as="geometry" />
        </mxCell>
        <mxCell id="8UW8FwMt3Wl7wXd7DehI-8" style="edgeStyle=orthogonalEdgeStyle;rounded=0;orthogonalLoop=1;jettySize=auto;html=1;entryX=0.5;entryY=0;entryDx=0;entryDy=0;" edge="1" parent="1" source="8UW8FwMt3Wl7wXd7DehI-4" target="8UW8FwMt3Wl7wXd7DehI-3">
          <mxGeometry relative="1" as="geometry" />
        </mxCell>
        <mxCell id="8UW8FwMt3Wl7wXd7DehI-4" value="array[x][y]" style="shape=parallelogram;html=1;strokeWidth=2;perimeter=parallelogramPerimeter;whiteSpace=wrap;rounded=1;arcSize=12;size=0.23;" vertex="1" parent="1">
          <mxGeometry x="364" y="140" width="100" height="60" as="geometry" />
        </mxCell>
        <mxCell id="8UW8FwMt3Wl7wXd7DehI-11" style="edgeStyle=orthogonalEdgeStyle;rounded=0;orthogonalLoop=1;jettySize=auto;html=1;entryX=0.5;entryY=0;entryDx=0;entryDy=0;" edge="1" parent="1" source="8UW8FwMt3Wl7wXd7DehI-7" target="8UW8FwMt3Wl7wXd7DehI-10">
          <mxGeometry relative="1" as="geometry" />
        </mxCell>
        <mxCell id="8UW8FwMt3Wl7wXd7DehI-7" value="j = 0; j&amp;lt; y; j++" style="rounded=1;whiteSpace=wrap;html=1;absoluteArcSize=1;arcSize=14;strokeWidth=2;" vertex="1" parent="1">
          <mxGeometry x="354" y="380" width="120" height="50" as="geometry" />
        </mxCell>
        <mxCell id="8UW8FwMt3Wl7wXd7DehI-12" style="edgeStyle=orthogonalEdgeStyle;rounded=0;orthogonalLoop=1;jettySize=auto;html=1;entryX=0;entryY=0.5;entryDx=0;entryDy=0;" edge="1" parent="1" source="8UW8FwMt3Wl7wXd7DehI-10" target="8UW8FwMt3Wl7wXd7DehI-3">
          <mxGeometry relative="1" as="geometry">
            <Array as="points">
              <mxPoint x="270" y="500" />
              <mxPoint x="270" y="295" />
            </Array>
          </mxGeometry>
        </mxCell>
        <mxCell id="8UW8FwMt3Wl7wXd7DehI-10" value="array[i][j] = 0" style="rounded=1;whiteSpace=wrap;html=1;absoluteArcSize=1;arcSize=14;strokeWidth=2;" vertex="1" parent="1">
          <mxGeometry x="357" y="480" width="114" height="40" as="geometry" />
        </mxCell>
        <mxCell id="8UW8FwMt3Wl7wXd7DehI-13" style="edgeStyle=orthogonalEdgeStyle;rounded=0;orthogonalLoop=1;jettySize=auto;html=1;entryX=0.5;entryY=0;entryDx=0;entryDy=0;entryPerimeter=0;" edge="1" parent="1" source="8UW8FwMt3Wl7wXd7DehI-10" target="8UW8FwMt3Wl7wXd7DehI-2">
          <mxGeometry relative="1" as="geometry" />
        </mxCell>
      </root>
    </mxGraphModel>
  </diagram>
</mxfile>
